<?xml version="1.0"?>
<svg xmlns="http://www.w3.org/2000/svg" height="512px" viewBox="0 -76 480 479" width="512px" class=""><g><path d="m328 168.492188v80h56v-80zm40 64h-24v-48h24zm0 0" data-original="#000000" class="active-path" data-old_color="#ffffff" fill="#ffffff"/><path d="m256 216.492188h40v16h-40v16h56v-48h-40v-16h40v-16h-56zm0 0" data-original="#000000" class="active-path" data-old_color="#ffffff" fill="#ffffff"/><path d="m216 152.492188h-16v16h-24v48h48v16h-48v16h24v16h16v-16h24v-48h-48v-16h48v-16h-24zm0 0" data-original="#000000" class="active-path" data-old_color="#ffffff" fill="#ffffff"/><path d="m88 120.492188c-30.929688 0-56 25.074218-56 56 0 30.929687 25.070312 56 56 56s56-25.070313 56-56c-.035156-30.914063-25.085938-55.964844-56-56zm0 96c-22.089844 0-40-17.910157-40-40 0-22.089844 17.910156-40 40-40s40 17.910156 40 40c-.027344 22.082031-17.917969 39.972656-40 40zm0 0" data-original="#000000" class="active-path" data-old_color="#ffffff" fill="#ffffff"/><path d="m64 248.492188h48v16h-48zm0 0" data-original="#000000" class="active-path" data-old_color="#ffffff" fill="#ffffff"/><path d="m128 248.492188h16v16h-16zm0 0" data-original="#000000" class="active-path" data-old_color="#ffffff" fill="#ffffff"/><path d="m32 248.492188h16v16h-16zm0 0" data-original="#000000" class="active-path" data-old_color="#ffffff" fill="#ffffff"/><path d="m32 280.492188h112v16h-112zm0 0" data-original="#000000" class="active-path" data-old_color="#ffffff" fill="#ffffff"/><path d="m376 8.492188c0-2.296876-.984375-4.480469-2.703125-6-1.730469-1.503907-4.015625-2.207032-6.289063-1.9375l-63.503906 7.9375h-31.007812l-63.503906-7.9375c-2.273438-.265626-4.558594.4375-6.289063 1.9375-1.71875 1.519531-2.703125 3.703124-2.703125 6v32h-200v288h480v-288h-104zm-36.902344 48h76.902344v32h-66.230469zm-62.195312 0-18.671875 56h-23.132813l18.671875-56zm11.097656 17.296874 4.902344 14.703126h-9.804688zm11.097656-17.296874h23.132813l18.671875 56h-23.132813zm60.902344-16h-48v-16.9375l48-6zm-64 0h-16v-16h16zm-80-22.9375 48 6v16.9375h-48zm20.902344 38.9375-10.671875 32h-210.230469v-32zm-220.902344 256v-208h204.902344l-8 24h56.867187l8-24h20.460938l8 24h56.867187l-8-24h60.902344v208zm416 0v-208h32v208zm32-224h-32v-32h32zm0 0" data-original="#000000" class="active-path" data-old_color="#ffffff" fill="#ffffff"/></g> </svg>
