<?xml version="1.0"?>
<svg xmlns="http://www.w3.org/2000/svg" height="512px" viewBox="0 -42 512 511" width="512px" class=""><g><path d="m181.566406 38.175781c22.417969-14.835937 48.160156-22.679687 74.433594-22.679687s52.011719 7.84375 74.433594 22.679687c1.273437.84375 2.710937 1.25 4.128906 1.25 2.433594 0 4.820312-1.183593 6.261719-3.363281 2.285156-3.453125 1.339843-8.105469-2.113281-10.390625-24.882813-16.46875-53.484376-25.171875-82.710938-25.171875s-57.828125 8.703125-82.710938 25.171875c-3.453124 2.285156-4.398437 6.9375-2.113281 10.390625 2.285157 3.453125 6.9375 4.402344 10.390625 2.113281zm0 0" data-original="#000000" class="active-path" data-old_color="#ffffff" fill="#ffffff"/><path d="m306.679688 77.199219c2.464843 0 4.875-1.210938 6.308593-3.4375 2.246094-3.480469 1.242188-8.121094-2.242187-10.363281-16.523438-10.648438-35.453125-16.277344-54.746094-16.277344s-38.222656 5.628906-54.75 16.277344c-3.480469 2.242187-4.484375 6.882812-2.242188 10.363281 2.246094 3.484375 6.886719 4.484375 10.367188 2.242187 14.097656-9.082031 30.21875-13.886718 46.625-13.886718 16.402344 0 32.527344 4.804687 46.625 13.886718 1.253906.808594 2.664062 1.195313 4.054688 1.195313zm0 0" data-original="#000000" class="active-path" data-old_color="#ffffff" fill="#ffffff"/><path d="m256 94.050781c-9.144531 0-18.125 3.128907-25.972656 9.042969-3.304688 2.492188-3.964844 7.195312-1.472656 10.503906 2.496093 3.304688 7.195312 3.964844 10.503906 1.472656 5.296875-3.996093 10.996094-6.019531 16.941406-6.019531 5.941406 0 11.644531 2.023438 16.941406 6.019531 1.351563 1.019532 2.9375 1.511719 4.507813 1.511719 2.273437 0 4.519531-1.027343 5.992187-2.984375 2.496094-3.308594 1.835938-8.007812-1.472656-10.5-7.84375-5.917968-16.824219-9.046875-25.96875-9.046875zm0 0" data-original="#000000" class="active-path" data-old_color="#ffffff" fill="#ffffff"/><path d="m474.507812 156.957031h-49.152343c-4.140625 0-7.5 3.355469-7.5 7.496094 0 4.144531 3.359375 7.5 7.5 7.5h49.152343c12.402344 0 22.496094 10.09375 22.496094 22.496094v195.96875c0 12.402343-10.09375 22.496093-22.496094 22.496093h-361.722656c-4.140625 0-7.496094 3.355469-7.496094 7.496094 0 4.144532 3.355469 7.5 7.496094 7.5h361.722656c20.671876 0 37.492188-16.820312 37.492188-37.492187v-195.96875c0-20.675781-16.820312-37.492188-37.492188-37.492188zm0 0" data-original="#000000" class="active-path" data-old_color="#ffffff" fill="#ffffff"/><path d="m82.792969 412.914062h-45.296875c-12.40625 0-22.496094-10.09375-22.496094-22.496093v-31.367188c15.28125-7.613281 25.226562-23.363281 25.226562-40.726562v-51.78125c0-17.363281-9.945312-33.113281-25.226562-40.730469v-31.363281c0-12.402344 10.089844-22.496094 22.496094-22.496094h357.863281c4.140625 0 7.5-3.355469 7.5-7.5 0-4.140625-3.359375-7.496094-7.5-7.496094h-357.863281c-20.675782 0-37.49218775 16.816407-37.49218775 37.492188v36.273437c0 .011719-.00390625.019532-.00390625.03125v123.355469c0 .011719.00390625.019531.00390625.03125v36.273437c0 20.675782 16.81640575 37.496094 37.49218775 37.496094h45.296875c4.140625 0 7.496093-3.359375 7.496093-7.5s-3.355468-7.496094-7.496093-7.496094zm-57.5625-146.371093v51.78125c0 8.863281-3.863281 17.097656-10.230469 22.777343v-97.335937c6.367188 5.675781 10.230469 13.914063 10.230469 22.777344zm0 0" data-original="#000000" class="active-path" data-old_color="#ffffff" fill="#ffffff"/><path d="m478.390625 323.246094v-61.628906c0-4.140626-3.355469-7.496094-7.5-7.496094-4.140625 0-7.496094 3.355468-7.496094 7.496094v61.628906c0 4.140625 3.355469 7.5 7.496094 7.5 4.144531 0 7.5-3.359375 7.5-7.5zm0 0" data-original="#000000" class="active-path" data-old_color="#ffffff" fill="#ffffff"/><path d="m342.988281 262.8125c14.476563 0 26.253907-11.777344 26.253907-26.253906 0-14.472656-11.777344-26.253906-26.253907-26.253906-14.476562 0-26.253906 11.777343-26.253906 26.253906 0 14.476562 11.777344 26.253906 26.253906 26.253906zm0-37.507812c6.207031 0 11.257813 5.050781 11.257813 11.257812s-5.050782 11.253906-11.257813 11.253906-11.253906-5.046875-11.253906-11.253906 5.046875-11.257812 11.253906-11.257812zm0 0" data-original="#000000" class="active-path" data-old_color="#ffffff" fill="#ffffff"/><path d="m342.988281 359.34375c14.476563 0 26.253907-11.777344 26.253907-26.253906 0-14.476563-11.777344-26.253906-26.253907-26.253906-14.476562 0-26.253906 11.777343-26.253906 26.253906 0 14.476562 11.777344 26.253906 26.253906 26.253906zm0-37.511719c6.207031 0 11.257813 5.050781 11.257813 11.257813 0 6.207031-5.050782 11.257812-11.257813 11.257812s-11.253906-5.050781-11.253906-11.257812c0-6.207032 5.046875-11.257813 11.253906-11.257813zm0 0" data-original="#000000" class="active-path" data-old_color="#ffffff" fill="#ffffff"/><path d="m392.117188 311.011719c14.476562 0 26.257812-11.777344 26.257812-26.253907 0-14.476562-11.78125-26.253906-26.257812-26.253906-14.472657 0-26.25 11.777344-26.25 26.253906 0 14.476563 11.777343 26.253907 26.25 26.253907zm0-37.507813c6.207031 0 11.257812 5.046875 11.257812 11.253906 0 6.207032-5.050781 11.257813-11.257812 11.257813-6.203126 0-11.253907-5.050781-11.253907-11.257813 0-6.207031 5.050781-11.253906 11.253907-11.253906zm0 0" data-original="#000000" class="active-path" data-old_color="#ffffff" fill="#ffffff"/><path d="m293.859375 258.503906c-14.476563 0-26.253906 11.777344-26.253906 26.253906 0 14.476563 11.777343 26.253907 26.253906 26.253907s26.253906-11.777344 26.253906-26.253907c0-14.476562-11.777343-26.253906-26.253906-26.253906zm0 37.511719c-6.207031 0-11.257813-5.050781-11.257813-11.257813 0-6.207031 5.050782-11.257812 11.257813-11.257812s11.253906 5.050781 11.253906 11.257812c0 6.207032-5.046875 11.257813-11.253906 11.257813zm0 0" data-original="#000000" class="active-path" data-old_color="#ffffff" fill="#ffffff"/><path d="m165.109375 376.277344c31.046875 0 57.542969-22.152344 63-52.671875.730469-4.078125-1.984375-7.972657-6.0625-8.703125-4.070313-.730469-7.972656 1.984375-8.699219 6.0625-4.175781 23.359375-24.464844 40.316406-48.238281 40.316406-27.023437 0-49.003906-21.984375-49.003906-49.007812 0-17.699219 9.621093-33.988282 24.851562-42.632813.605469.414063 1.222657.804687 1.847657 1.1875.078124.046875.15625.09375.234374.140625.476563.285156.953126.5625 1.4375.828125.113282.0625.226563.125.34375.1875.554688.300781 1.117188.59375 1.6875.867187.109376.050782.21875.097657.328126.152344.4375.207032.878906.40625 1.324218.597656.269532.117188.539063.226563.8125.335938.285156.117188.574219.230469.863282.34375.3125.117188.621093.234375.933593.347656.246094.089844.496094.167969.742188.25.636719.214844 1.28125.414063 1.933593.597656.203126.058594.402344.117188.605469.171876.355469.097656.714844.183593 1.078125.269531.242188.058593.488282.117187.734375.171875.351563.078125.699219.152344 1.050781.21875.230469.046875.464844.085937.695313.125v26.089844c0 4.140624 3.355469 7.496093 7.5 7.496093 4.140625 0 7.496094-3.355469 7.496094-7.496093v-26.089844c.234375-.039063.46875-.078125.699219-.125.347656-.066406.695312-.140625 1.039062-.21875.253906-.054688.503906-.113282.753906-.171875.355469-.085938.710938-.171875 1.0625-.265625.21875-.058594.433594-.121094.648438-.183594.628906-.179688 1.257812-.375 1.875-.582031.257812-.085938.511718-.167969.769531-.261719.308594-.109375.613281-.222656.921875-.339844.292969-.113281.585938-.230468.878906-.351562.265625-.109375.53125-.214844.796875-.328125.457031-.199219.914063-.40625 1.363281-.617188.097657-.046875.195313-.089843.289063-.132812.574219-.277344 1.140625-.570313 1.703125-.875.109375-.058594.214844-.117188.324219-.175781.488281-.269532.976562-.550782 1.457031-.839844.074219-.042969.148438-.089844.21875-.132813.625-.382812 1.246094-.773437 1.851562-1.1875 9.925782 5.644531 17.730469 14.714844 21.75 25.421875 1.457032 3.878906 5.78125 5.84375 9.65625 4.386719 3.878907-1.457031 5.839844-5.78125 4.386719-9.65625-4.761719-12.675781-13.585937-23.585937-24.839843-31.003906 4.878906-6.957031 7.75-15.417969 7.75-24.539063 0-23.628906-19.222657-42.851562-42.851563-42.851562s-42.851563 19.222656-42.851563 42.851562c0 9.117188 2.875 17.574219 7.746094 24.527344-17.8125 11.714844-28.894531 31.789062-28.894531 53.496094-.003906 35.289062 28.707031 64 64 64zm0-169.878906c15.359375 0 27.855469 12.496093 27.855469 27.851562 0 8.582031-3.902344 16.265625-10.023438 21.378906-.0625.050782-.125.105469-.191406.160156-.273438.222657-.554688.441407-.835938.65625-.070312.054688-.140624.109376-.210937.164063-.277344.203125-.558594.40625-.84375.601563-.082031.054687-.160156.113281-.242187.167968-.273438.183594-.550782.355469-.828126.53125-.101562.0625-.199218.125-.296874.1875-.25.148438-.503907.292969-.757813.433594-.132813.078125-.265625.15625-.398437.226562-.101563.058594-.207032.105469-.308594.160157-.632813.332031-1.273438.640625-1.929688.925781-.003906 0-.011718.003906-.019531.007812-.335937.144532-.671875.277344-1.015625.410157-.054688.019531-.109375.042969-.164062.0625-.324219.125-.652344.234375-.980469.347656-.074219.023437-.152344.050781-.226563.074219-.320312.105468-.640625.199218-.960937.292968-.09375.023438-.183594.050782-.277344.074219-.308594.085938-.621094.164063-.933594.238281-.109375.027344-.222656.054688-.335937.078126-.296875.066406-.597656.128906-.898438.183593-.132812.027344-.269531.050781-.402344.074219-.285156.046875-.570312.09375-.855468.136719-.164063.023437-.332032.042969-.496094.0625-.261719.035156-.527344.066406-.789062.089843-.207032.019532-.414063.035157-.621094.046876-.230469.019531-.460938.035156-.691406.046874-.316407.015626-.636719.019532-.953126.023438-.121093.003906-.246093.007812-.367187.007812-.125 0-.246094-.003906-.371094-.007812-.316406-.003906-.636719-.007812-.949219-.023438-.234374-.011718-.460937-.027343-.695312-.046874-.207031-.015626-.414062-.027344-.621094-.046876-.261718-.023437-.523437-.054687-.789062-.089843-.164063-.019531-.328125-.039063-.492188-.0625-.289062-.042969-.574218-.085938-.855468-.136719-.136719-.023438-.269532-.046875-.40625-.074219-.300782-.054687-.601563-.117187-.898438-.183593-.113281-.023438-.222656-.050782-.335938-.078126-.3125-.074218-.625-.152343-.933593-.238281-.09375-.023437-.183594-.050781-.277344-.074219-.320313-.09375-.640625-.1875-.957031-.292968-.078125-.023438-.152344-.050782-.230469-.074219-.328125-.113281-.65625-.222656-.980469-.347656-.054687-.019531-.109375-.042969-.164062-.0625-.339844-.132813-.679688-.265625-1.015625-.410157-.007813-.003906-.015625-.007812-.019531-.007812-.65625-.285156-1.296876-.59375-1.929688-.925781-.101562-.054688-.207031-.101563-.308594-.160157-.132812-.070312-.261718-.148437-.398437-.226562-.253907-.140625-.507813-.285156-.757813-.433594-.097656-.0625-.195312-.125-.292968-.1875-.28125-.175781-.558594-.347656-.828126-.53125-.082031-.054687-.164062-.113281-.242187-.167968-.285156-.195313-.570313-.398438-.847656-.601563-.070313-.054687-.140625-.109375-.210938-.164063-.28125-.214843-.5625-.433593-.835937-.65625-.066406-.054687-.128906-.109374-.191406-.160156-6.121094-5.117187-10.019532-12.796875-10.019532-21.378906 0-15.355469 12.496094-27.851562 27.855469-27.851562zm0 0" data-original="#000000" class="active-path" data-old_color="#ffffff" fill="#ffffff"/></g> </svg>
